HIERARCHY
ROOT root
{
	OFFSET	0	13.1	24.9
	CHANNELS 6  Xposition Yposition Zposition Xrotation Yrotation Zrotation
	JOINT spine_1
	{
		OFFSET	0	9.99999	0
		CHANNELS 3  Xrotation Yrotation Zrotation
		JOINT spine_2
		{
			OFFSET	0	112	-10
			CHANNELS 3  Xrotation Yrotation Zrotation
			JOINT spine_3
			{
				OFFSET	0	206.5	19.3
				CHANNELS 3  Xrotation Yrotation Zrotation
				JOINT spine_4
				{
					OFFSET	0	110.4	14.6
					CHANNELS 3  Xrotation Yrotation Zrotation
					JOINT neck_1
					{
						OFFSET	0	71.8	-50.3
						CHANNELS 3  Xrotation Yrotation Zrotation
						JOINT neck_2
						{
							OFFSET	0	86.2	-25.8
							CHANNELS 3  Xrotation Yrotation Zrotation
							JOINT head_ee
							{
								OFFSET	0	179.8	-8.7
								CHANNELS 3  Xrotation Yrotation Zrotation
								End Site
								{
									OFFSET	1	0	0
								}
							}
						}
					}
					JOINT left_clavicle
					{
						OFFSET	-43.2	22.4	-70.8
						CHANNELS 3  Xrotation Yrotation Zrotation
						JOINT left_shoulder
						{
							OFFSET	-93.9	-5.79999	48.7
							CHANNELS 3  Xrotation Yrotation Zrotation
							JOINT left_elbow
							{
								OFFSET	-291.4	-30.8	15.2
								CHANNELS 3  Xrotation Yrotation Zrotation
								JOINT left_lowarm_twist
								{
									OFFSET	-110.7	-3.89999	13.6
									CHANNELS 3  Xrotation Yrotation Zrotation
									JOINT left_hand
									{
										OFFSET	-110.7	-3.89999	13.6
										CHANNELS 3  Xrotation Yrotation Zrotation
										JOINT left_ee
										{
											OFFSET	-80.8	-5.10001	12.1
											CHANNELS 3  Xrotation Yrotation Zrotation
											End Site
											{
												OFFSET	1	0	0
											}
										}
									}
								}
							}
						}
					}
					JOINT right_clavicle
					{
						OFFSET	43.2	22.4	-70.8
						CHANNELS 3  Xrotation Yrotation Zrotation
						JOINT right_shoulder
						{
							OFFSET	93.9	-5.79999	48.7
							CHANNELS 3  Xrotation Yrotation Zrotation
							JOINT right_elbow
							{
								OFFSET	291.4	-30.8	15.2
								CHANNELS 3  Xrotation Yrotation Zrotation
								JOINT right_lowarm_twist
								{
									OFFSET	110.7	-3.89999	13.6
									CHANNELS 3  Xrotation Yrotation Zrotation
									JOINT right_hand
									{
										OFFSET	110.7	-3.89999	13.6
										CHANNELS 3  Xrotation Yrotation Zrotation
										JOINT right_ee
										{
											OFFSET	80.8	-5.10001	12.1
											CHANNELS 3  Xrotation Yrotation Zrotation
											End Site
											{
												OFFSET	1	0	0
											}
										}
									}
								}
							}
						}
					}
				}
			}
		}
	}
	JOINT left_hip
	{
		OFFSET	-82.8	-127.5	0.300001
		CHANNELS 3  Xrotation Yrotation Zrotation
		JOINT left_knee
		{
			OFFSET	-28.2	-396.7	2.2
			CHANNELS 3  Xrotation Yrotation Zrotation
			JOINT left_ankle
			{
				OFFSET	-11.7	-411.3	35.4
				CHANNELS 3  Xrotation Yrotation Zrotation
				JOINT left_toes
				{
					OFFSET	0	-60	-88.6
					CHANNELS 3  Xrotation Yrotation Zrotation
					JOINT left_foot_ee
					{
						OFFSET	-22.5	-16.5	-42.2
						CHANNELS 3  Xrotation Yrotation Zrotation
						End Site
						{
							OFFSET	1	0	0
						}
					}
				}
			}
		}
	}
	JOINT right_hip
	{
		OFFSET	82.8	-127.5	0.300001
		CHANNELS 3  Xrotation Yrotation Zrotation
		JOINT right_knee
		{
			OFFSET	28.2	-396.7	2.2
			CHANNELS 3  Xrotation Yrotation Zrotation
			JOINT right_ankle
			{
				OFFSET	11.7	-411.3	35.4
				CHANNELS 3  Xrotation Yrotation Zrotation
				JOINT right_toes
				{
					OFFSET	0	-60	-88.6
					CHANNELS 3  Xrotation Yrotation Zrotation
					JOINT right_foot_ee
					{
						OFFSET	22.5	-16.5	-42.2
						CHANNELS 3  Xrotation Yrotation Zrotation
						End Site
						{
							OFFSET	1	0	0
						}
					}
				}
			}
		}
	}
}
MOTION
Frames: 13
Frame Time: 0.02
559.664 723.139 -1215.63 -170.341 -59.9821 -176.128 2.04309 0.065379 2.58993 2.04681 -0.0995014 2.58884 2.04198 -0.551938 2.53132 2.03306 -0.145377 2.58668 -15.9093 -2.96408 -12.0413 -15.5041 1.30873 -12.3517 -0.0 0.0 -0.0 6.08567 11.0647 11.7295 -30.7444 -13.7594 55.2357 0.708881 -19.3492 0.120849 18.5884 0.27624 -2.34804 1.21868 28.8515 18.1239 -0.0 0.0 -0.0 9.32245 -5.9852 -17.9338 -27.6406 24.1902 -49.8514 1.43052 35.3207 -0.455467 22.8684 -0.231214 2.89275 0.38894 -17.9254 -9.66261 0.0 0.0 0.0 22.9267 -31.0223 14.823 -31.5124 -0.0168261 4.77554 35.2892 26.452 -4.73614 -15.3578 0.0 0.0 -0.0 0.0 -0.0 -0.600465 -8.22976 14.3646 -16.4566 -0.320998 -2.49637 6.98329 -30.703 1.08606 -8.99263 0.0 0.0 0.0 0.0 0.0 
576.503 720.605 -1215.39 -171.495 -61.3129 -176.689 1.74238 0.0442188 2.47602 1.74579 -0.113378 2.47382 1.74082 -0.558109 2.41275 1.73274 -0.170178 2.47057 -15.1553 -2.25002 -8.17763 -14.9673 0.539587 -8.46765 -0.0 0.0 -0.0 6.15857 10.2664 11.8771 -29.0482 -14.1836 54.5235 0.752781 -20.4507 0.135793 18.6599 0.275822 -2.35716 1.39314 29.2536 19.2316 -0.0 0.0 -0.0 9.13617 -7.17979 -17.4883 -28.335 23.1625 -50.0127 1.4226 35.1708 -0.450895 23.1026 -0.227578 2.92244 0.401761 -17.5147 -9.59046 0.0 0.0 0.0 21.6959 -34.13 16.0074 -31.3993 -0.0120678 4.75883 39.9116 25.3937 -5.17237 -15.6697 0.0 0.0 -0.0 0.0 -0.0 0.812426 -3.57459 14.6604 -21.2524 -0.278652 -3.23077 3.66188 -29.5779 0.569872 -8.9889 0.0 0.0 0.0 0.0 0.0 
589.026 721.162 -1212.71 -173.493 -61.785 -178.043 1.51801 0.139691 2.17699 1.52064 0.000913725 2.18147 1.52084 -0.401016 2.14431 1.51443 -0.0574137 2.18071 -14.281 -1.94214 -5.72697 -14.1885 -0.232924 -6.047 -0.0 0.0 -0.0 6.22667 9.74477 12.0102 -27.293 -14.1662 54.1871 0.780249 -21.1321 0.145543 18.3363 0.277622 -2.31587 1.10903 28.8079 17.4848 -0.0 0.0 -0.0 9.05517 -8.34679 -17.2449 -28.2874 21.9841 -50.5276 1.37767 34.3099 -0.425292 22.8489 -0.231513 2.89027 0.225866 -17.7856 -8.60889 0.0 0.0 0.0 21.1561 -38.5423 17.8225 -32.3146 -0.051526 4.89375 42.4147 26.0756 -5.43209 -15.4994 0.0 0.0 -0.0 0.0 -0.0 2.63686 -0.54389 13.6247 -24.3451 -0.218813 -3.70152 1.41195 -26.591 0.2168 -9.18652 0.0 0.0 0.0 0.0 0.0 
600.724 726.032 -1210.42 -174.714 -60.8342 -178.418 1.49279 0.272232 1.71052 1.49441 0.162852 1.72437 1.49951 -0.158149 1.72481 1.49537 0.116195 1.72814 -12.9277 -0.0798161 -5.14403 -12.8585 3.08487 -4.94179 -0.0 0.0 -0.0 5.61609 8.99201 10.934 -25.2933 -15.6437 55.0268 0.817614 -22.0489 0.159293 14.6431 0.281627 -1.84425 -0.156704 29.108 10.5236 -0.0 0.0 -0.0 9.09732 -9.49634 -17.2278 -28.2533 21.6202 -51.3333 1.22342 31.2165 -0.341785 20.6808 -0.259313 2.61475 -0.199684 -16.4671 -5.48444 0.0 0.0 0.0 18.2916 -39.4859 16.9463 -29.9631 0.0454791 4.54595 38.9751 26.7344 -5.12637 -16.2537 0.0 0.0 -0.0 0.0 -0.0 2.88131 2.10136 12.2224 -27.8684 -0.11979 -4.23309 8.35727 -25.6715 1.25365 -6.23338 0.0 0.0 0.0 0.0 0.0 
610.403 723.737 -1210.12 -173.885 -60.9614 -177.354 1.60719 0.239156 1.3626 1.60821 0.151974 1.37506 1.61196 -0.101658 1.37969 1.60933 0.117492 1.37843 -11.6339 1.07911 -4.40414 -11.5893 4.90679 -3.95041 -0.0 0.0 -0.0 6.22249 8.51956 12.0287 -24.433 -16.1052 53.0709 0.860987 -23.0984 0.175943 18.9962 0.273706 -2.40006 0.0506708 28.533 11.4617 -0.0 0.0 -0.0 8.93556 -8.15016 -17.0357 -27.6961 21.0941 -52.2311 1.09374 28.4484 -0.277259 21.4392 -0.250774 2.71125 0.0598246 -16.2382 -6.99555 0.0 0.0 0.0 17.7877 -40.9187 16.9896 -28.6303 0.0940854 4.3472 39.5738 26.175 -5.16603 -15.9361 0.0 0.0 -0.0 0.0 -0.0 3.83747 5.35927 10.9134 -30.1569 -0.0380251 -4.57476 12.0638 -18.7759 1.73413 -6.96115 0.0 0.0 0.0 0.0 0.0 
618.576 723.944 -1212.55 -174.916 -59.9949 -178.21 1.39849 0.216482 1.08169 1.39913 0.147217 1.09327 1.40206 -0.0589138 1.10156 1.40038 0.115786 1.09704 -10.7421 5.63308 0.716413 -10.7818 10.1593 2.16777 -0.0 0.0 -0.0 6.49265 5.13547 12.579 -21.9946 -14.8558 54.0318 0.836143 -22.4992 0.166316 20.7376 0.258718 -2.62197 -0.350764 28.6272 9.28791 -0.0 0.0 -0.0 9.08581 -8.52997 -17.2877 -27.2935 20.6639 -52.0404 0.992701 26.1854 -0.230881 22.2512 -0.240217 2.81442 -0.116507 -17.576 -6.43255 0.0 0.0 0.0 17.8929 -43.5231 18.9103 -27.7346 0.124149 4.21301 37.4757 26.5946 -4.96987 -17.9325 0.0 0.0 -0.0 0.0 -0.0 7.52523 7.788 9.10223 -36.6812 0.269241 -5.52806 20.5245 -14.6481 2.82002 -7.22167 0.0 0.0 0.0 0.0 0.0 
634.898 734.011 -1207.94 -175.223 -60.4412 -178.598 0.765083 0.187222 0.803398 0.765432 0.135722 0.813682 0.767494 -0.0272817 0.824472 0.76656 0.103266 0.818434 -13.3237 9.10758 2.97412 -13.4642 15.5019 5.61989 -0.0 0.0 -0.0 6.67932 2.24012 12.9583 -21.0857 -14.4661 54.259 0.922985 -24.5705 0.200998 22.8238 0.231895 -2.88709 -0.465664 23.5739 6.70977 -0.0 0.0 -0.0 9.17253 -7.77557 -17.5115 -26.7056 20.3531 -52.4404 0.906331 24.1783 -0.194125 23.8771 -0.214688 3.02053 -0.289674 -18.519 -5.75172 0.0 0.0 0.0 15.607 -48.0593 19.3569 -23.408 0.239626 3.55923 36.5804 27.3932 -4.90392 -20.2668 0.0 0.0 -0.0 0.0 -0.0 12.4555 7.81541 6.6285 -42.6389 0.643131 -6.3637 25.8209 -8.68673 3.42758 -5.67841 0.0 0.0 0.0 0.0 0.0 
645.017 738.028 -1205.08 -176.524 -60.9014 -179.054 0.618683 0.0214969 0.238124 0.618715 0.00630099 0.239009 0.618751 -0.0415337 0.235457 0.618674 -0.00382654 0.239061 -14.3384 12.181 4.64286 -14.6186 20.477 8.36689 -0.0 0.0 -0.0 6.75644 0.109306 13.1099 -20.3898 -14.2002 54.2422 1.03775 -27.2057 0.251119 24.539 0.20262 -3.10423 -0.541996 19.9274 4.80247 -0.0 0.0 -0.0 9.14391 -8.09122 -17.4323 -26.6796 19.4081 -52.0172 0.845529 22.7262 -0.169925 25.0469 -0.192705 3.16835 -0.330192 -20.2629 -6.19937 0.0 0.0 0.0 12.5951 -51.4153 18.3492 -20.3095 0.291831 3.0867 36.0506 27.0353 -4.83594 -22.0188 0.0 0.0 -0.0 0.0 -0.0 17.7703 7.69049 5.74524 -47.648 1.02356 -7.03373 29.2855 -3.55302 3.81529 -4.44316 0.0 0.0 0.0 0.0 0.0 
657.207 735.733 -1201.21 -177.809 -61.3913 -179.66 0.390316 -0.0924764 -0.0228308 0.390311 -0.0908362 -0.0286691 0.390356 -0.0831008 -0.0465552 0.390364 -0.0894104 -0.0328467 -15.5192 14.2808 6.09856 -15.9581 23.8224 10.7241 -0.0 0.0 -0.0 6.88808 -1.56791 13.3627 -19.4487 -14.0665 53.4 1.12605 -29.1525 0.292825 25.7422 0.17821 -3.25599 -0.59379 16.9187 3.25227 -0.0 0.0 -0.0 9.1583 -8.27913 -17.4442 -26.8338 18.8314 -51.5338 0.786856 21.295 -0.147934 25.8621 -0.175604 3.27107 -0.384764 -21.6138 -6.40926 0.0 0.0 0.0 9.53763 -53.7979 17.3725 -18.4118 0.311159 2.79617 35.5031 26.684 -4.76633 -23.3468 0.0 0.0 -0.0 0.0 -0.0 22.8743 7.74034 4.21979 -49.57 1.18492 -7.28174 31.5681 0.0243921 4.07548 -3.61912 0.0 0.0 0.0 0.0 0.0 
665.071 736.784 -1198.83 -178.494 -61.0656 -179.532 0.336075 -0.194475 -0.232747 0.336087 -0.17927 -0.244651 0.336877 -0.125473 -0.27613 0.33681 -0.167508 -0.252849 -16.2727 15.2781 6.51038 -16.8472 25.628 11.678 -0.0 0.0 -0.0 6.9417 -3.01569 13.4556 -18.5201 -14.1294 52.3715 1.23537 -31.4639 0.348002 26.9237 0.151144 -3.40448 -0.57951 13.1987 1.78337 -0.0 0.0 -0.0 9.13575 -8.48547 -17.3849 -26.5205 18.5839 -51.3932 0.799049 21.5948 -0.152392 27.1188 -0.14638 3.42895 -0.305318 -23.935 -7.77432 0.0 0.0 0.0 6.84985 -54.2393 16.0657 -16.8637 0.319793 2.55881 35.3052 27.5951 -4.77491 -24.238 0.0 0.0 -0.0 0.0 -0.0 27.6065 6.58061 2.22628 -51.7604 1.37892 -7.55772 32.7508 2.61567 4.22041 -3.03561 0.0 0.0 0.0 0.0 0.0 
671.787 736.667 -1194.37 -175.988 -59.7877 -176.32 0.196049 -0.27825 -0.539571 0.196178 -0.243353 -0.556183 0.198659 -0.123091 -0.594481 0.19823 -0.215432 -0.567581 -16.7765 16.754 7.73235 -17.4833 27.8757 13.531 -0.0 0.0 -0.0 7.13005 -4.02373 13.8255 -18.3714 -13.9165 50.5074 1.30245 -32.8283 0.383695 28.0554 0.122351 -3.54618 -0.289714 7.71106 1.32934 -0.0 0.0 -0.0 9.20255 -9.21009 -17.4483 -26.4412 18.4513 -50.8145 0.903506 24.1116 -0.19297 27.1387 -0.145891 3.43144 -0.42102 -26.6807 -8.16733 0.0 0.0 0.0 5.49559 -53.4049 13.2537 -16.5016 0.320887 2.50327 34.5485 27.2991 -4.68309 -25.8489 0.0 0.0 -0.0 0.0 -0.0 30.7276 6.93075 0.19927 -50.0803 1.22917 -7.34668 34.0886 5.39629 4.39028 -2.8921 0.0 0.0 0.0 0.0 0.0 
677.485 736.935 -1189.95 -175.25 -58.6701 -175.232 0.247063 -0.281487 -0.759817 0.247354 -0.232569 -0.776188 0.250704 -0.0677835 -0.807439 0.249848 -0.194449 -0.786603 -18.4857 16.5236 9.32305 -19.185 26.8973 15.348 -0.0 0.0 -0.0 7.38333 -4.74467 14.3355 -18.0105 -13.8672 48.9042 1.36373 -34.0394 0.417466 28.6725 0.105472 -3.6232 -0.12777 2.61419 0.251154 -0.0 0.0 -0.0 9.28787 -8.76262 -17.6468 -26.0078 18.1834 -51.0387 0.846175 22.7418 -0.170174 28.0017 -0.123782 3.53946 0.0373298 -29.1043 -11.585 0.0 0.0 0.0 2.92404 -50.8083 10.6334 -15.5039 0.322085 2.3502 34.8826 26.1234 -4.68246 -26.8721 0.0 0.0 -0.0 0.0 -0.0 34.4106 7.43245 -0.649679 -43.5142 0.705337 -6.48309 33.8009 8.436 4.41348 -5.68834 0.0 0.0 0.0 0.0 0.0 
689.838 739.777 -1185.82 -174.55 -58.4041 -173.989 0.300836 -0.392486 -0.916841 0.301242 -0.333352 -0.939955 0.307013 -0.133677 -0.988312 0.305765 -0.288078 -0.954802 -19.3696 16.4154 10.0242 -20.0695 26.5008 16.1791 -0.0 0.0 -0.0 7.6507 -5.38504 14.8799 -17.9346 -13.8 47.5128 1.40565 -34.8483 0.441175 29.048 0.0947968 -3.66997 -0.023891 -0.91044 -0.544058 -0.0 0.0 -0.0 9.1183 -8.54805 -17.3471 -25.7405 17.9435 -51.0526 0.808573 21.8281 -0.155915 28.6068 -0.107311 3.615 0.400335 -30.4912 -14.0277 0.0 0.0 0.0 0.885504 -48.4014 8.67162 -15.1283 0.321845 2.29257 35.0731 25.4645 -4.68314 -27.622 0.0 0.0 -0.0 0.0 -0.0 37.5776 7.99891 -1.77489 -37.9617 0.342209 -5.71081 33.3362 10.4077 4.4073 -7.69333 0.0 0.0 0.0 0.0 0.0 
